Motion_pl14
version=1
nRows=8
nColumns=43
inDegrees=yes
endheader
time	pelvis_tilt	pelvis_list	pelvis_rotation	pelvis_tx	pelvis_ty	pelvis_tz	hip_flexion_r	hip_adduction_r	hip_rotation_r	knee_angle_r	ankle_angle_r	subtalar_angle_r	mtp_angle_r	hip_flexion_l	hip_adduction_l	hip_rotation_l	knee_angle_l	ankle_angle_l	subtalar_angle_l	mtp_angle_l	lumbar_extension	lumbar_bending	lumbar_rotation	neck_flexion	neck_lateral_bending	neck_rotation	arm_flex_r	arm_add_r	arm_rot_r	elbow_flex_r	pro_sup_r	wrist_flex_r	wrist_dev_r	hand_finger_flex_r	arm_flex_l	arm_add_l	arm_rot_l	elbow_flex_l	pro_sup_l	wrist_flex_l	wrist_dev_l	hand_finger_flex_l
      0.00250000	      4.06807838	    -11.13909631	     86.14077397	      0.04767312	      1.72159980	      1.94464720	     92.19031936	      4.76638613	     -6.86311163	   -137.10163937	     25.06657526	     -5.30270825	      8.28332680	     94.11384851	     -8.32976093	      3.03177860	   -141.90442261	     22.98084303	     -4.48666390	      5.38922913	    -62.86463788	     -0.98474361	      3.67664735	     40.55252413	     -1.75760542	      3.72031931	     25.87796705	    -18.39760116	     -7.10588295	     70.67858264	     93.80172470	     -5.06448855	     -4.63590819	     21.72341640	     14.41531526	    -20.26210038	    -12.06166573	     69.70341215	     97.46171741	     -3.75685182	     -2.38403021	     30.44795350
      0.00500000	      3.95287985	    -11.17490486	     86.08102263	      0.04778331	      1.72071721	      1.94404250	     92.28861358	      4.77664192	     -6.82235511	   -137.25617654	     25.04099472	     -5.61162138	      8.25556190	     94.18610682	     -8.36917778	      2.95104063	   -142.02925976	     22.84317462	     -4.31867810	      5.48961786	    -62.79508533	     -1.10374370	      3.61455400	     40.60292176	     -1.73187415	      3.51588525	     26.65227535	    -18.57080431	     -6.81736209	     70.41431548	     94.24579656	     -4.83745244	     -4.16631043	     21.87183004	     15.00704661	    -20.51723976	    -11.78112439	     69.72070506	     97.33587668	     -3.64838079	     -2.30988529	     30.47449699
      0.00750000	      3.89634721	    -11.22151532	     86.01988777	      0.04782519	      1.71985279	      1.94337780	     92.38809859	      4.80463288	     -6.80874310	   -137.40165618	     24.96288580	     -5.80736337	      8.22640525	     94.25525657	     -8.43273089	      2.90118278	   -142.16454612	     22.82294267	     -4.27261293	      5.59432459	    -62.75647403	     -1.17885528	      3.65001874	     40.76226888	     -1.79501567	      3.46121125	     27.34701287	    -18.70785185	     -6.68628441	     70.28598548	     94.68811908	     -4.66111682	     -3.67261553	     21.95354604	     15.59166043	    -20.66844346	    -11.57620204	     69.81249421	     97.16534320	     -3.52692581	     -2.22440491	     30.52132502
      0.01000000	      3.85336412	    -11.20359741	     85.92796130	      0.04803958	      1.71893361	      1.94266910	     92.44481456	      4.86685960	     -6.87846200	   -137.55862679	     24.80618721	     -6.22438993	      8.15007664	     94.26029027	     -8.52123493	      2.89806318	   -142.33887088	     22.78972601	     -4.27485564	      6.07504369	    -62.77190749	     -1.28281206	      3.71162863	     40.84952303	     -1.90302154	      3.45144837	     27.93810417	    -18.59485357	     -6.96848356	     70.46733627	     95.90790299	     -4.30706013	     -2.48555559	     22.04596733	     16.14238967	    -20.82841588	    -11.37496808	     69.96296349	     96.36048363	     -3.33986752	     -2.01382667	     30.64448966
      0.01250000	      3.84398902	    -11.26502328	     85.92016473	      0.04808876	      1.71803493	      1.94199436	     92.54902243	      4.86173422	     -6.88720091	   -137.69808140	     24.83229690	     -6.23894866	      8.15141851	     94.35704968	     -8.54932336	      2.89609786	   -142.48061438	     22.77557509	     -4.27054383	      6.14082537	    -62.71289649	     -1.31312537	      3.79803256	     41.02306709	     -1.92915980	      3.40140571	     28.57491069	    -18.73174872	     -6.73590528	     70.33683629	     96.03714888	     -4.23411546	     -2.38915242	     22.02729443	     16.77512667	    -20.89796221	    -11.19105901	     70.03731353	     96.35657231	     -3.30913418	     -1.98518561	     30.64738586
      0.01500000	      3.83933466	    -11.31656268	     85.86496919	      0.04804156	      1.71714027	      1.94127339	     92.62008166	      4.87950368	     -6.91733119	   -137.83670892	     24.84082031	     -6.27347490	      8.14733637	     94.43276799	     -8.58885654	      2.90559123	   -142.62401005	     22.75017992	     -4.27506743	      6.20907429	    -62.65301803	     -1.34390245	      3.87026845	     41.14489530	     -1.97335621	      3.35542626	     29.19035698	    -18.85745589	     -6.44488632	     70.23707453	     96.17130370	     -4.21981907	     -2.26286577	     21.98709262	     17.38579303	    -20.98651873	    -11.02467648	     70.12455160	     96.30855200	     -3.26146056	     -1.98260056	     30.65706598
      0.01750000	      3.84324607	    -11.34836843	     85.80690788	      0.04816423	      1.71629478	      1.94057891	     92.68759534	      4.91594275	     -6.96996060	   -137.96518999	     24.84132240	     -6.33284276	      8.13720267	     94.49745848	     -8.64318395	      2.93359159	   -142.77736895	     22.71253159	     -4.28920971	      6.29614583	    -62.60853874	     -1.40178475	      3.94806011	     41.25254739	     -2.02659783	      3.31948839	     29.84113957	    -18.97786966	     -6.03136033	     70.15291138	     96.29982425	     -4.30042349	     -2.12345385	     21.91574167	     18.00498133	    -21.08750724	    -10.84993265	     70.19785452	     96.20162991	     -3.20690239	     -2.00776286	     30.66790588
      0.02000000	      3.91825674	    -11.31529128	     85.71679933	      0.04831991	      1.71552358	      1.93985235	     92.67884324	      5.02295728	     -7.10401395	   -138.07850031	     24.80297616	     -6.52021536	      8.08647810	     94.50174511	     -8.77169816	      3.02917753	   -142.95061612	     22.62313412	     -4.33823789	      6.59415966	    -62.62339478	     -1.42856657	      4.03993402	     41.23419131	     -2.12479574	      3.36118777	     30.53130495	    -19.20916276	     -5.22120180	     70.11962427	     96.31552039	     -4.95146402	     -1.95166397	     21.67591963	     18.50672631	    -21.28524257	    -10.64259948	     70.37337476	     95.71577690	     -3.15829638	     -2.17571382	     30.69066758
